<?xml version="1.0" encoding="UTF-8" standalone="no"?><svg xmlns="http://www.w3.org/2000/svg" xmlns:xlink="http://www.w3.org/1999/xlink" contentScriptType="application/ecmascript" contentStyleType="text/css" height="828px" preserveAspectRatio="none" style="width:2514px;height:828px;background:#FFFFFF;" version="1.1" viewBox="0 0 2514 828" width="2514px" zoomAndPan="magnify"><defs/><g><text fill="#000000" font-family="sans-serif" font-size="18" lengthAdjust="spacing" textLength="186" x="1157.96" y="16.708">Website - Containers</text><!--MD5=[3aa067a49d85837e8bd0ca08037cba25]
cluster Website\n[Software System]--><polygon fill="#FFFFFF" points="425.92,26.9531,578.92,26.9531,585.92,65.5469,1137.92,65.5469,1137.92,459.9531,425.92,459.9531,425.92,26.9531" style="stroke:#444444;stroke-width:1.5;"/><line style="stroke:#444444;stroke-width:1.5;" x1="425.92" x2="585.92" y1="65.5469" y2="65.5469"/><text fill="#444444" font-family="sans-serif" font-size="14" font-weight="bold" lengthAdjust="spacing" textLength="64" x="471.42" y="41.9482">Website</text><text fill="#444444" font-family="sans-serif" font-size="14" font-weight="bold" lengthAdjust="spacing" textLength="147" x="429.92" y="58.2451">[Software System]</text><!--MD5=[7562a9927188c6a286b7a3aa9ba709a3]
entity Website.AccessRequest--><rect fill="#438DD5" height="99.1563" style="stroke:#2E6295;stroke-width:1.5;" width="193" x="442.42" y="335.4531"/><text fill="#FFFFFF" font-family="sans-serif" font-size="16" font-weight="bold" lengthAdjust="spacing" textLength="143" x="467.42" y="360.3047">Access Request</text><text fill="#FFFFFF" font-family="sans-serif" font-size="10" lengthAdjust="spacing" textLength="56" x="510.92" y="373.3604">[Container]</text><text fill="#FFFFFF" font-family="sans-serif" font-size="14" lengthAdjust="spacing" textLength="0" x="540.92" y="388.7139"/><text fill="#FFFFFF" font-family="sans-serif" font-size="14" lengthAdjust="spacing" textLength="169" x="452.42" y="405.0107">User access requests to</text><text fill="#FFFFFF" font-family="sans-serif" font-size="14" lengthAdjust="spacing" textLength="154" x="461.92" y="421.3076">change authorizations</text><!--MD5=[5c580e0687f57751b03f239492cc9c4c]
entity Website.Calculators--><rect fill="#438DD5" height="99.1563" style="stroke:#2E6295;stroke-width:1.5;" width="205" x="670.42" y="335.4531"/><text fill="#FFFFFF" font-family="sans-serif" font-size="16" font-weight="bold" lengthAdjust="spacing" textLength="98" x="723.92" y="360.3047">Calculators</text><text fill="#FFFFFF" font-family="sans-serif" font-size="10" lengthAdjust="spacing" textLength="56" x="744.92" y="373.3604">[Container]</text><text fill="#FFFFFF" font-family="sans-serif" font-size="14" lengthAdjust="spacing" textLength="0" x="774.92" y="388.7139"/><text fill="#FFFFFF" font-family="sans-serif" font-size="14" lengthAdjust="spacing" textLength="181" x="680.42" y="405.0107">User access to calculators</text><text fill="#FFFFFF" font-family="sans-serif" font-size="14" lengthAdjust="spacing" textLength="167" x="689.42" y="421.3076">used in form completion</text><!--MD5=[d0bb6a2725c86b414c239ec3d59cc84f]
entity Website.DocumentationInterface--><rect fill="#438DD5" height="117.7813" style="stroke:#2E6295;stroke-width:1.5;" width="211" x="910.42" y="325.9531"/><text fill="#FFFFFF" font-family="sans-serif" font-size="16" font-weight="bold" lengthAdjust="spacing" textLength="135" x="945.42" y="350.8047">Documentation</text><text fill="#FFFFFF" font-family="sans-serif" font-size="16" font-weight="bold" lengthAdjust="spacing" textLength="82" x="974.92" y="369.4297">Interface</text><text fill="#FFFFFF" font-family="sans-serif" font-size="10" lengthAdjust="spacing" textLength="56" x="987.92" y="382.4854">[Container]</text><text fill="#FFFFFF" font-family="sans-serif" font-size="14" lengthAdjust="spacing" textLength="0" x="1017.92" y="397.8389"/><text fill="#FFFFFF" font-family="sans-serif" font-size="14" lengthAdjust="spacing" textLength="187" x="920.42" y="414.1357">Provide access to form and</text><text fill="#FFFFFF" font-family="sans-serif" font-size="14" lengthAdjust="spacing" textLength="154" x="938.92" y="430.4326">center documentation</text><!--MD5=[944a1bfc662527ea7a9e670ddc1d84a1]
entity Website.LandingPage--><rect fill="#438DD5" height="99.1563" style="stroke:#2E6295;stroke-width:1.5;" width="207" x="442.42" y="77.9531"/><text fill="#FFFFFF" font-family="sans-serif" font-size="16" font-weight="bold" lengthAdjust="spacing" textLength="118" x="486.92" y="102.8047">Landing Page</text><text fill="#FFFFFF" font-family="sans-serif" font-size="10" lengthAdjust="spacing" textLength="56" x="517.92" y="115.8604">[Container]</text><text fill="#FFFFFF" font-family="sans-serif" font-size="14" lengthAdjust="spacing" textLength="0" x="547.92" y="131.2139"/><text fill="#FFFFFF" font-family="sans-serif" font-size="14" lengthAdjust="spacing" textLength="173" x="457.42" y="147.5107">Landing page for website</text><text fill="#FFFFFF" font-family="sans-serif" font-size="14" lengthAdjust="spacing" textLength="187" x="452.42" y="163.8076">with routing to subsystems</text><!--MD5=[4a3f3998f8b80ec327207cc29efa6261]
entity ADRCDataUser--><ellipse cx="1495.92" cy="78.0999" fill="#08427B" rx="29.6468" ry="29.6468" style="stroke:#052E56;stroke-width:1.5;"/><rect fill="#08427B" height="99.1563" rx="29.6468" ry="29.6468" style="stroke:#052E56;stroke-width:1.5;" width="201" x="1395.42" y="107.7467"/><text fill="#FFFFFF" font-family="sans-serif" font-size="16" font-weight="bold" lengthAdjust="spacing" textLength="143" x="1424.42" y="132.5982">ADRC Data User</text><text fill="#FFFFFF" font-family="sans-serif" font-size="10" lengthAdjust="spacing" textLength="42" x="1474.92" y="145.6539">[Person]</text><text fill="#FFFFFF" font-family="sans-serif" font-size="14" lengthAdjust="spacing" textLength="0" x="1497.92" y="161.0074"/><text fill="#FFFFFF" font-family="sans-serif" font-size="14" lengthAdjust="spacing" textLength="177" x="1405.42" y="177.3043">ADRC user uploading and</text><text fill="#FFFFFF" font-family="sans-serif" font-size="14" lengthAdjust="spacing" textLength="102" x="1444.92" y="193.6012">managing data</text><!--MD5=[c7abb53782ce9fd62aabc2dda327b699]
entity ADRCLeader--><ellipse cx="2304.92" cy="85.8513" fill="#08427B" rx="26.8982" ry="26.8982" style="stroke:#052E56;stroke-width:1.5;"/><rect fill="#08427B" height="82.8594" rx="26.8982" ry="26.8982" style="stroke:#052E56;stroke-width:1.5;" width="198" x="2205.92" y="112.7495"/><text fill="#FFFFFF" font-family="sans-serif" font-size="16" font-weight="bold" lengthAdjust="spacing" textLength="116" x="2246.92" y="137.601">ADRC Leader</text><text fill="#FFFFFF" font-family="sans-serif" font-size="10" lengthAdjust="spacing" textLength="42" x="2283.92" y="150.6567">[Person]</text><text fill="#FFFFFF" font-family="sans-serif" font-size="14" lengthAdjust="spacing" textLength="0" x="2306.92" y="166.0102"/><text fill="#FFFFFF" font-family="sans-serif" font-size="14" lengthAdjust="spacing" textLength="178" x="2215.92" y="182.3071">ADRC leadership member</text><!--MD5=[00af80dfb05af082a60909b2d216a295]
entity AuthorizationService--><rect fill="#08427B" height="115.4531" style="stroke:#052E56;stroke-width:1.5;" width="209" x="297.42" y="706.9531"/><text fill="#FFFFFF" font-family="sans-serif" font-size="16" font-weight="bold" lengthAdjust="spacing" textLength="189" x="307.42" y="731.8047">Authorization Service</text><text fill="#FFFFFF" font-family="sans-serif" font-size="10" lengthAdjust="spacing" textLength="94" x="354.92" y="744.8604">[Software System]</text><text fill="#FFFFFF" font-family="sans-serif" font-size="14" lengthAdjust="spacing" textLength="0" x="403.92" y="760.2139"/><text fill="#FFFFFF" font-family="sans-serif" font-size="14" lengthAdjust="spacing" textLength="130" x="334.92" y="776.5107">Authentication and</text><text fill="#FFFFFF" font-family="sans-serif" font-size="14" lengthAdjust="spacing" textLength="163" x="318.42" y="792.8076">Authorization to Access</text><text fill="#FFFFFF" font-family="sans-serif" font-size="14" lengthAdjust="spacing" textLength="59" x="372.42" y="809.1045">Systems</text><!--MD5=[d8dbfb01b5435ebe361e6450c726994f]
entity NACCDirectory--><rect fill="#1168BD" height="115.4531" style="stroke:#0B4884;stroke-width:1.5;" width="198" x="1389.92" y="518.9531"/><text fill="#FFFFFF" font-family="sans-serif" font-size="16" font-weight="bold" lengthAdjust="spacing" textLength="138" x="1419.92" y="543.8047">NACC Directory</text><text fill="#FFFFFF" font-family="sans-serif" font-size="10" lengthAdjust="spacing" textLength="94" x="1441.92" y="556.8604">[Software System]</text><text fill="#FFFFFF" font-family="sans-serif" font-size="14" lengthAdjust="spacing" textLength="0" x="1490.92" y="572.2139"/><text fill="#FFFFFF" font-family="sans-serif" font-size="14" lengthAdjust="spacing" textLength="174" x="1399.92" y="588.5107">Directory of NACC, ADRC,</text><text fill="#FFFFFF" font-family="sans-serif" font-size="14" lengthAdjust="spacing" textLength="171" x="1401.42" y="604.8076">and affiliated project staff</text><text fill="#FFFFFF" font-family="sans-serif" font-size="14" lengthAdjust="spacing" textLength="66" x="1455.92" y="621.1045">with roles</text><!--MD5=[8d96d9893c6bd918fa5ccd3187112fd0]
entity ADRCClinicalUser--><ellipse cx="1256.92" cy="77.9664" fill="#08427B" rx="30.0132" ry="30.0132" style="stroke:#052E56;stroke-width:1.5;"/><rect fill="#08427B" height="99.1563" rx="30.0132" ry="30.0132" style="stroke:#052E56;stroke-width:1.5;" width="206" x="1153.92" y="107.9796"/><text fill="#FFFFFF" font-family="sans-serif" font-size="16" font-weight="bold" lengthAdjust="spacing" textLength="161" x="1176.42" y="132.8312">ADRC Clinical User</text><text fill="#FFFFFF" font-family="sans-serif" font-size="10" lengthAdjust="spacing" textLength="42" x="1235.92" y="145.8868">[Person]</text><text fill="#FFFFFF" font-family="sans-serif" font-size="14" lengthAdjust="spacing" textLength="0" x="1258.92" y="161.2404"/><text fill="#FFFFFF" font-family="sans-serif" font-size="14" lengthAdjust="spacing" textLength="182" x="1163.92" y="177.5372">ADRC user responsible for</text><text fill="#FFFFFF" font-family="sans-serif" font-size="14" lengthAdjust="spacing" textLength="100" x="1206.92" y="193.8341">data collection</text><!--MD5=[5861730779c3bd58646f12ce4b4e3af2]
entity NACCDataRepository--><rect fill="#1168BD" height="115.4531" style="stroke:#0B4884;stroke-width:1.5;" width="219" x="1933.42" y="327.4531"/><text fill="#FFFFFF" font-family="sans-serif" font-size="16" font-weight="bold" lengthAdjust="spacing" textLength="198" x="1943.92" y="352.3047">NACC Data Repository</text><text fill="#FFFFFF" font-family="sans-serif" font-size="10" lengthAdjust="spacing" textLength="94" x="1995.92" y="365.3604">[Software System]</text><text fill="#FFFFFF" font-family="sans-serif" font-size="14" lengthAdjust="spacing" textLength="0" x="2044.92" y="380.7139"/><text fill="#FFFFFF" font-family="sans-serif" font-size="14" lengthAdjust="spacing" textLength="125" x="1978.42" y="397.0107">Allows acquisition,</text><text fill="#FFFFFF" font-family="sans-serif" font-size="14" lengthAdjust="spacing" textLength="195" x="1943.42" y="413.3076">management and queries of</text><text fill="#FFFFFF" font-family="sans-serif" font-size="14" lengthAdjust="spacing" textLength="64" x="2010.92" y="429.6045">data sets</text><!--MD5=[9187420b3ee29e13a21850ad86899c09]
entity ResearchCenterUser--><ellipse cx="1739.92" cy="77.7573" fill="#08427B" rx="30.8041" ry="30.8041" style="stroke:#052E56;stroke-width:1.5;"/><rect fill="#08427B" height="99.1563" rx="30.8041" ry="30.8041" style="stroke:#052E56;stroke-width:1.5;" width="217" x="1631.42" y="108.5614"/><text fill="#FFFFFF" font-family="sans-serif" font-size="16" font-weight="bold" lengthAdjust="spacing" textLength="197" x="1641.42" y="133.413">Research Center User</text><text fill="#FFFFFF" font-family="sans-serif" font-size="10" lengthAdjust="spacing" textLength="42" x="1718.92" y="146.4686">[Person]</text><text fill="#FFFFFF" font-family="sans-serif" font-size="14" lengthAdjust="spacing" textLength="0" x="1741.92" y="161.8222"/><text fill="#FFFFFF" font-family="sans-serif" font-size="14" lengthAdjust="spacing" textLength="152" x="1661.92" y="178.119">User at ADRC or other</text><text fill="#FFFFFF" font-family="sans-serif" font-size="14" lengthAdjust="spacing" textLength="110" x="1684.92" y="194.4159">research center</text><!--MD5=[a6a8aca4c853df3ce7a8ab92452b9090]
entity ResearchTracking--><rect fill="#1168BD" height="99.1563" style="stroke:#0B4884;stroke-width:1.5;" width="218" x="113.92" y="335.4531"/><text fill="#FFFFFF" font-family="sans-serif" font-size="16" font-weight="bold" lengthAdjust="spacing" textLength="165" x="140.42" y="360.3047">Research Tracking</text><text fill="#FFFFFF" font-family="sans-serif" font-size="10" lengthAdjust="spacing" textLength="94" x="175.92" y="373.3604">[Software System]</text><text fill="#FFFFFF" font-family="sans-serif" font-size="14" lengthAdjust="spacing" textLength="0" x="224.92" y="388.7139"/><text fill="#FFFFFF" font-family="sans-serif" font-size="14" lengthAdjust="spacing" textLength="194" x="123.92" y="405.0107">Directory of research activity</text><text fill="#FFFFFF" font-family="sans-serif" font-size="14" lengthAdjust="spacing" textLength="184" x="130.92" y="421.3076">using NACC managed data</text><!--MD5=[8e257b0afe9e935277c75a7596d04b18]
entity TrainingSystem--><rect fill="#1168BD" height="115.4531" style="stroke:#0B4884;stroke-width:1.5;" width="196" x="1498.92" y="327.4531"/><text fill="#FFFFFF" font-family="sans-serif" font-size="16" font-weight="bold" lengthAdjust="spacing" textLength="142" x="1525.92" y="352.3047">Training System</text><text fill="#FFFFFF" font-family="sans-serif" font-size="10" lengthAdjust="spacing" textLength="94" x="1549.92" y="365.3604">[Software System]</text><text fill="#FFFFFF" font-family="sans-serif" font-size="14" lengthAdjust="spacing" textLength="0" x="1598.92" y="380.7139"/><text fill="#FFFFFF" font-family="sans-serif" font-size="14" lengthAdjust="spacing" textLength="155" x="1517.42" y="397.0107">Learning management</text><text fill="#FFFFFF" font-family="sans-serif" font-size="14" lengthAdjust="spacing" textLength="172" x="1508.92" y="413.3076">system providing training</text><text fill="#FFFFFF" font-family="sans-serif" font-size="14" lengthAdjust="spacing" textLength="62" x="1565.92" y="429.6045">materials</text><!--MD5=[c79be9791a578b184a44205079187a05]
link Website.LandingPage to NACCDataRepository--><path d="M649.67,145.5231 C767.42,164.1631 965.42,193.3231 1136.92,207.9531 C1227.98,215.7231 1880.65,190.7631 1958.92,237.9531 C1975.63,248.0331 1997.76,287.3031 2015.11,322.5831 " fill="none" id="Website.LandingPage-to-NACCDataRepository" style="stroke:#707070;stroke-width:2.0;stroke-dasharray:7.0,7.0;"/><polygon fill="#707070" points="2017.41,327.3031,2017.0383,317.4613,2015.2083,322.814,2009.8556,320.984,2017.41,327.3031" style="stroke:#707070;stroke-width:2.0;"/><text fill="#000000" font-family="sans-serif" font-size="10" lengthAdjust="spacing" textLength="0" x="2003.92" y="270.7354"/><!--MD5=[66ba4a3f0a760340c481518cbedb3871]
link Website.LandingPage to NACCDirectory--><path d="M500.16,177.0631 C438.18,248.7931 343.59,383.5631 419.92,467.9531 C483.91,538.7131 1128.39,565.0331 1384.65,572.7531 " fill="none" id="Website.LandingPage-to-NACCDirectory" style="stroke:#707070;stroke-width:2.0;stroke-dasharray:7.0,7.0;"/><polygon fill="#707070" points="1389.88,572.9031,1381.0101,568.6224,1384.8825,572.7461,1380.7588,576.6184,1389.88,572.9031" style="stroke:#707070;stroke-width:2.0;"/><text fill="#000000" font-family="sans-serif" font-size="10" lengthAdjust="spacing" textLength="0" x="423.92" y="388.7354"/><!--MD5=[d5b75d4296f512fc7196e87bbf22bd79]
link ResearchCenterUser to Website.Calculators--><path d="M1631.21,201.4231 C1625.48,203.8731 1619.7,206.0731 1613.92,207.9531 C1516.91,239.4731 1242.01,183.2531 1155.92,237.9531 C1131.07,253.7431 1148.25,279.3831 1123.92,295.9531 C1038.35,354.2331 992.13,296.3831 892.92,325.9531 C885.71,328.1031 878.4,330.6431 871.13,333.4331 " fill="none" id="ResearchCenterUser-to-Website.Calculators" style="stroke:#707070;stroke-width:2.0;stroke-dasharray:7.0,7.0;"/><polygon fill="#707070" points="866.1,335.4031,875.9386,335.8531,870.7571,333.5833,873.0268,328.4018,866.1,335.4031" style="stroke:#707070;stroke-width:2.0;"/><text fill="#707070" font-family="sans-serif" font-size="10" lengthAdjust="spacing" textLength="90" x="1156.92" y="259.7354">Use calculators for</text><text fill="#707070" font-family="sans-serif" font-size="10" lengthAdjust="spacing" textLength="85" x="1160.92" y="271.376">completing forms</text><text fill="#707070" font-family="sans-serif" font-size="8" lengthAdjust="spacing" textLength="32" x="1187.42" y="281.1602">[HTTPS]</text><!--MD5=[9804e2017b5755e8d194cde6bd0e15e3]
link ResearchCenterUser to NACCDirectory--><path d="M1848.68,148.4231 C1939.53,164.9331 2072.55,188.7031 2188.92,207.9531 C2232.17,215.1131 2355.37,204.6731 2383.92,237.9531 C2400.7,257.5131 2395.06,272.7031 2383.92,295.9531 C2331.18,405.9931 2281.5,418.5531 2169.92,467.9531 C1978.66,552.6331 1731.18,571.7931 1593.36,575.4331 " fill="none" id="ResearchCenterUser-to-NACCDirectory" style="stroke:#707070;stroke-width:2.0;stroke-dasharray:7.0,7.0;"/><polygon fill="#707070" points="1588.1,575.5631,1597.1998,579.3305,1593.0983,575.4346,1596.9942,571.3331,1588.1,575.5631" style="stroke:#707070;stroke-width:2.0;"/><text fill="#707070" font-family="sans-serif" font-size="10" lengthAdjust="spacing" textLength="73" x="2373.92" y="377.7354">Adds/Removes</text><text fill="#707070" font-family="sans-serif" font-size="10" lengthAdjust="spacing" textLength="86" x="2368.92" y="389.376">Members Of Adrc</text><text fill="#707070" font-family="sans-serif" font-size="8" lengthAdjust="spacing" textLength="32" x="2395.92" y="399.1602">[HTTPS]</text><!--MD5=[af0a326282f463809e85ebb797b2be4a]
link ResearchCenterUser to Website.DocumentationInterface--><path d="M1631.15,201.2131 C1625.43,203.7231 1619.67,205.9931 1613.92,207.9531 C1546.52,230.9131 1355.45,200.4631 1294.92,237.9531 C1269.12,253.9331 1282.48,276.8431 1258.92,295.9531 C1220.84,326.8331 1170.99,347.3831 1126.37,360.8031 " fill="none" id="ResearchCenterUser-to-Website.DocumentationInterface" style="stroke:#707070;stroke-width:2.0;stroke-dasharray:7.0,7.0;"/><polygon fill="#707070" points="1121.51,362.2331,1131.2746,363.5185,1126.305,360.8161,1129.0074,355.8465,1121.51,362.2331" style="stroke:#707070;stroke-width:2.0;"/><text fill="#707070" font-family="sans-serif" font-size="10" lengthAdjust="spacing" textLength="77" x="1295.92" y="254.2354">Get information</text><text fill="#707070" font-family="sans-serif" font-size="10" lengthAdjust="spacing" textLength="62" x="1303.42" y="265.876">about NACC</text><text fill="#707070" font-family="sans-serif" font-size="10" lengthAdjust="spacing" textLength="47" x="1312.42" y="277.5166">resources</text><text fill="#707070" font-family="sans-serif" font-size="8" lengthAdjust="spacing" textLength="32" x="1319.92" y="287.3008">[HTTPS]</text><!--MD5=[acfea47c9371a7ea443371e1acecbcc3]
link ResearchCenterUser to NACCDataRepository--><path d="M1848.62,143.7831 C1952.87,160.9731 2099.39,192.5231 2133.92,237.9531 C2154.33,264.8131 2139.02,296.3931 2115.53,323.2931 " fill="none" id="ResearchCenterUser-to-NACCDataRepository" style="stroke:#707070;stroke-width:2.0;stroke-dasharray:7.0,7.0;"/><polygon fill="#707070" points="2112.01,327.2331,2120.9962,323.2022,2115.3477,323.5103,2115.0396,317.8618,2112.01,327.2331" style="stroke:#707070;stroke-width:2.0;"/><text fill="#707070" font-family="sans-serif" font-size="10" lengthAdjust="spacing" textLength="86" x="2144.42" y="248.2354">Views ADRC data</text><text fill="#707070" font-family="sans-serif" font-size="10" lengthAdjust="spacing" textLength="87" x="2143.92" y="259.876">and reports about</text><text fill="#707070" font-family="sans-serif" font-size="10" lengthAdjust="spacing" textLength="79" x="2147.92" y="271.5166">submissions and</text><text fill="#707070" font-family="sans-serif" font-size="10" lengthAdjust="spacing" textLength="29" x="2174.42" y="283.1572">errors</text><text fill="#707070" font-family="sans-serif" font-size="8" lengthAdjust="spacing" textLength="32" x="2172.92" y="292.9414">[HTTPS]</text><!--MD5=[3bff7533f468798959df3cde2fdba6c5]
link ResearchCenterUser to TrainingSystem--><path d="M1714.85,208.2331 C1704.21,236.9231 1690.42,268.8631 1673.92,295.9531 C1668.38,305.0431 1661.88,314.1031 1655.05,322.7531 " fill="none" id="ResearchCenterUser-to-TrainingSystem" style="stroke:#707070;stroke-width:2.0;stroke-dasharray:7.0,7.0;"/><polygon fill="#707070" points="1651.67,326.9731,1660.4218,322.4558,1654.7987,323.073,1654.1815,317.4499,1651.67,326.9731" style="stroke:#707070;stroke-width:2.0;"/><text fill="#707070" font-family="sans-serif" font-size="10" lengthAdjust="spacing" textLength="87" x="1702.92" y="259.7354">Learn about using</text><text fill="#707070" font-family="sans-serif" font-size="10" lengthAdjust="spacing" textLength="81" x="1707.42" y="271.376">NACC resources</text><text fill="#707070" font-family="sans-serif" font-size="8" lengthAdjust="spacing" textLength="32" x="1731.92" y="281.1602">[HTTPS]</text><!--MD5=[082a749e9175e7b01ce1f37a356cdce1]
link ADRCDataUser to NACCDataRepository--><path d="M1596.51,200.8731 C1602.27,203.5331 1608.09,205.9231 1613.92,207.9531 C1696.01,236.5131 1937.06,182.4031 2003.92,237.9531 C2017.24,249.0231 2027.19,287.4931 2033.71,322.1731 " fill="none" id="ADRCDataUser-to-NACCDataRepository" style="stroke:#707070;stroke-width:2.0;stroke-dasharray:7.0,7.0;"/><polygon fill="#707070" points="2034.64,327.2531,2036.9533,317.6798,2033.7393,322.3349,2029.0841,319.1209,2034.64,327.2531" style="stroke:#707070;stroke-width:2.0;"/><text fill="#707070" font-family="sans-serif" font-size="10" lengthAdjust="spacing" textLength="85" x="2027.92" y="259.7354">Uploads data and</text><text fill="#707070" font-family="sans-serif" font-size="10" lengthAdjust="spacing" textLength="71" x="2036.42" y="271.376">corrects errors</text><text fill="#707070" font-family="sans-serif" font-size="8" lengthAdjust="spacing" textLength="32" x="2055.92" y="281.1602">[HTTPS]</text><!--MD5=[4e623ba7bad09b02fb6ca9f9b7eba500]
link ADRCDataUser to Website.Calculators--><path d="M1395.38,201.0531 C1389.62,203.6731 1383.78,206.0031 1377.92,207.9531 C1315.75,228.6831 836.58,192.9831 788.92,237.9531 C764.53,260.9531 760.97,298.8331 763.28,330.2531 " fill="none" id="ADRCDataUser-to-Website.Calculators" style="stroke:#707070;stroke-width:2.0;stroke-dasharray:7.0,7.0;"/><polygon fill="#707070" points="763.7,335.2331,766.941,325.9328,763.286,330.2503,758.9685,326.5953,763.7,335.2331" style="stroke:#707070;stroke-width:2.0;"/><text fill="#707070" font-family="sans-serif" font-size="10" lengthAdjust="spacing" textLength="90" x="789.92" y="259.7354">Use calculators for</text><text fill="#707070" font-family="sans-serif" font-size="10" lengthAdjust="spacing" textLength="85" x="793.92" y="271.376">completing forms</text><text fill="#707070" font-family="sans-serif" font-size="8" lengthAdjust="spacing" textLength="32" x="820.42" y="281.1602">[HTTPS]</text><!--MD5=[a767b9cf36e1003383b9365977d06aef]
link ADRCDataUser to Website.DocumentationInterface--><path d="M1395.29,200.7931 C1389.55,203.4731 1383.74,205.8931 1377.92,207.9531 C1306.42,233.2831 1093.18,185.9931 1037.92,237.9531 C1015.85,258.7031 1009.47,291.4031 1008.99,320.6031 " fill="none" id="ADRCDataUser-to-Website.DocumentationInterface" style="stroke:#707070;stroke-width:2.0;stroke-dasharray:7.0,7.0;"/><polygon fill="#707070" points="1008.97,325.6331,1013.0214,316.6561,1008.9986,320.6332,1005.0215,316.6104,1008.97,325.6331" style="stroke:#707070;stroke-width:2.0;"/><text fill="#707070" font-family="sans-serif" font-size="10" lengthAdjust="spacing" textLength="77" x="1038.92" y="254.2354">Get information</text><text fill="#707070" font-family="sans-serif" font-size="10" lengthAdjust="spacing" textLength="62" x="1046.42" y="265.876">about NACC</text><text fill="#707070" font-family="sans-serif" font-size="10" lengthAdjust="spacing" textLength="47" x="1055.42" y="277.5166">resources</text><text fill="#707070" font-family="sans-serif" font-size="8" lengthAdjust="spacing" textLength="32" x="1062.92" y="287.3008">[HTTPS]</text><!--MD5=[9c71845586375cc9ea65744f4933c003]
link ADRCDataUser to TrainingSystem--><path d="M1543.25,206.5031 C1548.61,216.8831 1553.66,227.5431 1557.92,237.9531 C1568.95,264.9331 1577.75,295.9831 1584.18,322.5031 " fill="none" id="ADRCDataUser-to-TrainingSystem" style="stroke:#707070;stroke-width:2.0;stroke-dasharray:7.0,7.0;"/><polygon fill="#707070" points="1585.35,327.3931,1587.1349,317.7074,1584.181,322.5317,1579.3566,319.5778,1585.35,327.3931" style="stroke:#707070;stroke-width:2.0;"/><text fill="#707070" font-family="sans-serif" font-size="10" lengthAdjust="spacing" textLength="85" x="1576.92" y="259.7354">Learn about usng</text><text fill="#707070" font-family="sans-serif" font-size="10" lengthAdjust="spacing" textLength="81" x="1580.42" y="271.376">NACC resources</text><text fill="#707070" font-family="sans-serif" font-size="8" lengthAdjust="spacing" textLength="32" x="1604.92" y="281.1602">[HTTPS]</text><!--MD5=[74a0456916178dcf3905672d70011a7c]
link ADRCClinicalUser to TrainingSystem--><path d="M1360.12,196.4831 C1366.13,200.3731 1372.1,204.2231 1377.92,207.9531 C1399.1,221.5231 1408.62,219.6831 1425.92,237.9531 C1446.16,259.3331 1437.74,274.5131 1457.92,295.9531 C1468.74,307.4531 1481.37,318.0831 1494.52,327.6931 " fill="none" id="ADRCClinicalUser-to-TrainingSystem" style="stroke:#707070;stroke-width:2.0;stroke-dasharray:7.0,7.0;"/><polygon fill="#707070" points="1498.62,330.6431,1493.6637,322.1323,1494.5659,327.7167,1488.9814,328.6189,1498.62,330.6431" style="stroke:#707070;stroke-width:2.0;"/><text fill="#707070" font-family="sans-serif" font-size="10" lengthAdjust="spacing" textLength="87" x="1458.92" y="259.7354">Learn about using</text><text fill="#707070" font-family="sans-serif" font-size="10" lengthAdjust="spacing" textLength="29" x="1489.42" y="271.376">forms</text><text fill="#707070" font-family="sans-serif" font-size="8" lengthAdjust="spacing" textLength="32" x="1487.92" y="281.1602">[HTTPS]</text><!--MD5=[0c225ea6c8d47e2dafb783d0470a2db4]
link ADRCClinicalUser to Website.Calculators--><path d="M1153.74,201.7731 C1148.5,204.0931 1143.22,206.1731 1137.92,207.9531 C1084.64,225.8531 671.47,197.0431 632.92,237.9531 C615.24,256.7131 620.45,273.3931 632.92,295.9531 C641.03,310.6431 652.74,323.2131 665.98,333.8631 " fill="none" id="ADRCClinicalUser-to-Website.Calculators" style="stroke:#707070;stroke-width:2.0;stroke-dasharray:7.0,7.0;"/><polygon fill="#707070" points="670.14,337.1031,665.4981,328.4168,666.1955,334.0305,660.5819,334.7279,670.14,337.1031" style="stroke:#707070;stroke-width:2.0;"/><text fill="#707070" font-family="sans-serif" font-size="10" lengthAdjust="spacing" textLength="90" x="633.92" y="259.7354">Use calculators for</text><text fill="#707070" font-family="sans-serif" font-size="10" lengthAdjust="spacing" textLength="85" x="637.92" y="271.376">completing forms</text><text fill="#707070" font-family="sans-serif" font-size="8" lengthAdjust="spacing" textLength="32" x="664.42" y="281.1602">[HTTPS]</text><!--MD5=[8eb2d9d8903f56a7eae91c9956be263e]
link ADRCClinicalUser to Website.DocumentationInterface--><path d="M1153.58,201.3331 C1148.39,203.7631 1143.15,205.9931 1137.92,207.9531 C1088.61,226.4031 937.71,198.4431 902.92,237.9531 C885.88,257.3031 891.6,272.7931 902.92,295.9531 C907.52,305.3631 913.66,314.0531 920.71,322.0131 " fill="none" id="ADRCClinicalUser-to-Website.DocumentationInterface" style="stroke:#707070;stroke-width:2.0;stroke-dasharray:7.0,7.0;"/><polygon fill="#707070" points="924.25,325.8631,921.0892,316.5352,920.8604,322.1875,915.2082,321.9586,924.25,325.8631" style="stroke:#707070;stroke-width:2.0;"/><text fill="#707070" font-family="sans-serif" font-size="10" lengthAdjust="spacing" textLength="77" x="910.42" y="259.7354">Get information</text><text fill="#707070" font-family="sans-serif" font-size="10" lengthAdjust="spacing" textLength="93" x="903.92" y="271.376">about use of forms</text><text fill="#707070" font-family="sans-serif" font-size="8" lengthAdjust="spacing" textLength="32" x="934.42" y="281.1602">[HTTPS]</text><!--MD5=[3f33e015c5371f7fff21cb9e39d9c710]
link ADRCLeader to Website.DocumentationInterface--><path d="M2205.53,136.1731 C2110.23,147.2431 1965.12,173.9531 1855.92,237.9531 C1825.53,255.7631 1833.52,280.4031 1801.92,295.9531 C1737.83,327.4831 1552.92,318.2131 1481.92,325.9531 C1360.3,339.2231 1221.13,356.8631 1126.79,369.1931 " fill="none" id="ADRCLeader-to-Website.DocumentationInterface" style="stroke:#707070;stroke-width:2.0;stroke-dasharray:7.0,7.0;"/><polygon fill="#707070" points="1121.77,369.8531,1131.2097,372.6625,1126.7285,369.2101,1130.1808,364.7289,1121.77,369.8531" style="stroke:#707070;stroke-width:2.0;"/><text fill="#707070" font-family="sans-serif" font-size="10" lengthAdjust="spacing" textLength="77" x="1865.42" y="254.2354">Get information</text><text fill="#707070" font-family="sans-serif" font-size="10" lengthAdjust="spacing" textLength="94" x="1856.92" y="265.876">about ADRC use of</text><text fill="#707070" font-family="sans-serif" font-size="10" lengthAdjust="spacing" textLength="31" x="1889.92" y="277.5166">NACC</text><text fill="#707070" font-family="sans-serif" font-size="8" lengthAdjust="spacing" textLength="32" x="1889.42" y="287.3008">[HTTPS]</text><!--MD5=[9b467a5f0217fc8314db8c67d2e81d7e]
link NACCDataRepository to NACCDirectory--><path d="M1933.13,423.5031 C1834.33,457.3031 1690.17,506.6131 1593.13,539.8031 " fill="none" id="NACCDataRepository-to-NACCDirectory" style="stroke:#707070;stroke-width:2.0;stroke-dasharray:7.0,7.0;"/><polygon fill="#707070" points="1588.25,541.4731,1598.0597,542.3509,1592.9819,539.8577,1595.475,534.7799,1588.25,541.4731" style="stroke:#707070;stroke-width:2.0;"/><text fill="#000000" font-family="sans-serif" font-size="10" lengthAdjust="spacing" textLength="0" x="1769.92" y="486.2354"/><!--MD5=[12b59451154aaa1fbe08c29a0100efe7]
link ADRCLeader to NACCDataRepository--><path d="M2383.71,196.2331 C2410.94,227.7831 2429.2,265.0631 2404.92,295.9531 C2374.44,334.7331 2251.78,358.5431 2157.6,371.4531 " fill="none" id="ADRCLeader-to-NACCDataRepository" style="stroke:#707070;stroke-width:2.0;stroke-dasharray:7.0,7.0;"/><polygon fill="#707070" points="2152.57,372.1331,2162.0254,374.8889,2157.5248,371.462,2160.9517,366.9613,2152.57,372.1331" style="stroke:#707070;stroke-width:2.0;"/><text fill="#707070" font-family="sans-serif" font-size="10" lengthAdjust="spacing" textLength="86" x="2417.42" y="248.2354">Views ADRC data</text><text fill="#707070" font-family="sans-serif" font-size="10" lengthAdjust="spacing" textLength="87" x="2416.92" y="259.876">and reports about</text><text fill="#707070" font-family="sans-serif" font-size="10" lengthAdjust="spacing" textLength="79" x="2420.92" y="271.5166">submissions and</text><text fill="#707070" font-family="sans-serif" font-size="10" lengthAdjust="spacing" textLength="29" x="2447.42" y="283.1572">errors</text><text fill="#707070" font-family="sans-serif" font-size="8" lengthAdjust="spacing" textLength="32" x="2445.92" y="292.9414">[HTTPS]</text><!--MD5=[eedda82376a583e2d1edffd505360466]
link ADRCLeader to TrainingSystem--><path d="M2297.09,196.2031 C2289.31,231.5631 2273.81,272.2831 2242.92,295.9531 C2185,340.3431 1988.22,316.0831 1915.92,325.9531 C1843.5,335.8431 1762.47,350.6231 1700.2,362.7831 " fill="none" id="ADRCLeader-to-TrainingSystem" style="stroke:#707070;stroke-width:2.0;stroke-dasharray:7.0,7.0;"/><polygon fill="#707070" points="1695,363.8031,1704.5987,366.0088,1699.9078,362.8472,1703.0693,358.1563,1695,363.8031" style="stroke:#707070;stroke-width:2.0;"/><text fill="#707070" font-family="sans-serif" font-size="10" lengthAdjust="spacing" textLength="87" x="2284.92" y="259.7354">Learn about using</text><text fill="#707070" font-family="sans-serif" font-size="10" lengthAdjust="spacing" textLength="81" x="2289.42" y="271.376">NACC resources</text><text fill="#707070" font-family="sans-serif" font-size="8" lengthAdjust="spacing" textLength="32" x="2313.92" y="281.1602">[HTTPS]</text><!--MD5=[d6dc12653c493b798bc1adfc2ef450b3]
link NACCDirectory to AuthorizationService--><path d="M1389.57,594.4531 C1186.12,629.2631 723.42,708.4431 511.55,744.6931 " fill="none" id="NACCDirectory-to-AuthorizationService" style="stroke:#707070;stroke-width:2.0;stroke-dasharray:7.0,7.0;"/><polygon fill="#707070" points="506.59,745.5431,516.1355,747.9688,511.5185,744.7003,514.7869,740.0833,506.59,745.5431" style="stroke:#707070;stroke-width:2.0;"/><text fill="#000000" font-family="sans-serif" font-size="10" lengthAdjust="spacing" textLength="0" x="981.92" y="674.2354"/><!--MD5=[938a5090f993615a2318775bc687c0aa]
link ResearchTracking to AuthorizationService--><path d="M245.95,434.5331 C278.34,502.8331 337.32,627.2231 372.73,701.9031 " fill="none" id="ResearchTracking-to-AuthorizationService" style="stroke:#707070;stroke-width:2.0;stroke-dasharray:7.0,7.0;"/><polygon fill="#707070" points="375.03,706.7531,374.7841,696.9073,372.8859,702.2362,367.557,700.3379,375.03,706.7531" style="stroke:#707070;stroke-width:2.0;"/><text fill="#000000" font-family="sans-serif" font-size="10" lengthAdjust="spacing" textLength="0" x="341.92" y="580.2354"/><!--MD5=[eb388cf4cd3517e928066ec16077e00c]
link Website.AccessRequest to AuthorizationService--><path d="M521.29,434.5331 C496.5,502.8331 451.36,627.2231 424.25,701.9031 " fill="none" id="Website.AccessRequest-to-AuthorizationService" style="stroke:#707070;stroke-width:2.0;stroke-dasharray:7.0,7.0;"/><polygon fill="#707070" points="422.49,706.7531,429.3318,699.6686,424.2033,702.0558,421.8161,696.9273,422.49,706.7531" style="stroke:#707070;stroke-width:2.0;"/><text fill="#000000" font-family="sans-serif" font-size="10" lengthAdjust="spacing" textLength="0" x="491.92" y="580.2354"/><!--MD5=[ec821e70c9c7a41600dddcb554bc2c8b]
link Website.LandingPage to Website.AccessRequest--><path d="M524.02,177.0431 C516.73,195.6931 509.55,217.4231 505.92,237.9531 C501.43,263.3331 501.32,270.5931 505.92,295.9531 C507.98,307.3331 511.43,319.1531 515.34,330.3031 " fill="none" id="Website.LandingPage-to-Website.AccessRequest" style="stroke:#707070;stroke-width:2.0;stroke-dasharray:7.0,7.0;"/><polygon fill="#707070" points="517.04,335.0431,517.7667,325.2211,515.352,330.3367,510.2364,327.922,517.04,335.0431" style="stroke:#707070;stroke-width:2.0;"/><text fill="#000000" font-family="sans-serif" font-size="10" lengthAdjust="spacing" textLength="0" x="509.92" y="270.7354"/><!--MD5=[c28a439b9c78739913b8bd750591f479]
link Website.LandingPage to AuthorizationService--><path d="M442,141.4331 C334.6,160.9931 172.2,209.1631 95.92,325.9531 C6,463.6131 187.64,620.5731 307.66,703.9831 " fill="none" id="Website.LandingPage-to-AuthorizationService" style="stroke:#707070;stroke-width:2.0;stroke-dasharray:7.0,7.0;"/><polygon fill="#707070" points="311.9,706.9131,306.7695,698.5061,307.7865,704.0708,302.2218,705.0877,311.9,706.9131" style="stroke:#707070;stroke-width:2.0;"/><text fill="#000000" font-family="sans-serif" font-size="10" lengthAdjust="spacing" textLength="0" x="96.92" y="486.2354"/><!--MD5=[a454a8cb27c33c0370c3aca52a37e758]
link Website.LandingPage to Website.Calculators--><path d="M533.32,177.1631 C526.95,213.5931 525.23,262.6731 550.92,295.9531 C579.79,333.3631 608.83,308.9431 652.92,325.9531 C658.94,328.2731 665.07,330.7831 671.22,333.4031 " fill="none" id="Website.LandingPage-to-Website.Calculators" style="stroke:#707070;stroke-width:2.0;stroke-dasharray:7.0,7.0;"/><polygon fill="#707070" points="675.93,335.4231,669.2605,328.1762,671.3417,333.4363,666.0816,335.5175,675.93,335.4231" style="stroke:#707070;stroke-width:2.0;"/><text fill="#000000" font-family="sans-serif" font-size="10" lengthAdjust="spacing" textLength="0" x="554.92" y="270.7354"/><!--MD5=[77b1035c1e54a771cd91d896db97fa8a]
link Website.LandingPage to Website.DocumentationInterface--><path d="M546.59,177.0631 C549.92,215.4831 561.18,267.2431 595.92,295.9531 C647.05,338.2131 829,308.2131 892.92,325.9531 C897.01,327.0831 901.13,328.3431 905.25,329.7131 " fill="none" id="Website.LandingPage-to-Website.DocumentationInterface" style="stroke:#707070;stroke-width:2.0;stroke-dasharray:7.0,7.0;"/><polygon fill="#707070" points="910.1,331.3631,902.875,324.6699,905.3681,329.7477,900.2903,332.2409,910.1,331.3631" style="stroke:#707070;stroke-width:2.0;"/><text fill="#000000" font-family="sans-serif" font-size="10" lengthAdjust="spacing" textLength="0" x="599.92" y="270.7354"/><!--MD5=[3ca8382e699e992c93617c64fbc9c014]
link Website.LandingPage to TrainingSystem--><path d="M649.43,142.7431 C767.38,158.9331 965.95,185.9431 1136.92,207.9531 C1191.1,214.9331 1333.56,210.7131 1380.92,237.9531 C1408.96,254.0931 1400.12,275.1731 1424.92,295.9531 C1445.61,313.2931 1470.3,328.4231 1494.42,341.0331 " fill="none" id="Website.LandingPage-to-TrainingSystem" style="stroke:#707070;stroke-width:2.0;stroke-dasharray:7.0,7.0;"/><polygon fill="#707070" points="1498.91,343.3531,1492.7564,335.6633,1494.4697,341.0545,1489.0786,342.7677,1498.91,343.3531" style="stroke:#707070;stroke-width:2.0;"/><text fill="#000000" font-family="sans-serif" font-size="10" lengthAdjust="spacing" textLength="0" x="1428.92" y="270.7354"/><!--MD5=[77d49c1c5e640f634ba2b32668c162f1]
link Website.LandingPage to ResearchTracking--><path d="M459.71,177.2131 C430.58,195.0231 398.47,216.1731 370.92,237.9531 C335.15,266.2231 298.64,302.1531 270.83,331.2831 " fill="none" id="Website.LandingPage-to-ResearchTracking" style="stroke:#707070;stroke-width:2.0;stroke-dasharray:7.0,7.0;"/><polygon fill="#707070" points="267.14,335.1631,276.2364,331.3875,270.5815,331.536,270.433,325.8811,267.14,335.1631" style="stroke:#707070;stroke-width:2.0;"/><text fill="#000000" font-family="sans-serif" font-size="10" lengthAdjust="spacing" textLength="0" x="374.92" y="270.7354"/><!--MD5=[6506a9e9fb4d92fc94835aab510b8e66]
@startuml
title Website - Containers

top to bottom direction

skinparam {
  shadowing false
  arrowFontSize 10
  defaultTextAlignment center
  wrapWidth 200
  maxMessageSize 100
}

hide stereotype

skinparam person<<ADRCClinicalUser>> {
  BackgroundColor #08427b
  FontColor #ffffff
  BorderColor #052e56
}
skinparam person<<ADRCDataUser>> {
  BackgroundColor #08427b
  FontColor #ffffff
  BorderColor #052e56
}
skinparam person<<ADRCLeader>> {
  BackgroundColor #08427b
  FontColor #ffffff
  BorderColor #052e56
}
skinparam rectangle<<Website.AccessRequest>> {
  BackgroundColor #438dd5
  FontColor #ffffff
  BorderColor #2e6295
}
skinparam rectangle<<AuthorizationService>> {
  BackgroundColor #08427b
  FontColor #ffffff
  BorderColor #052e56
}
skinparam rectangle<<Website.Calculators>> {
  BackgroundColor #438dd5
  FontColor #ffffff
  BorderColor #2e6295
}
skinparam rectangle<<Website.DocumentationInterface>> {
  BackgroundColor #438dd5
  FontColor #ffffff
  BorderColor #2e6295
}
skinparam rectangle<<Website.LandingPage>> {
  BackgroundColor #438dd5
  FontColor #ffffff
  BorderColor #2e6295
}
skinparam rectangle<<NACCDataRepository>> {
  BackgroundColor #1168bd
  FontColor #ffffff
  BorderColor #0b4884
}
skinparam rectangle<<NACCDirectory>> {
  BackgroundColor #1168bd
  FontColor #ffffff
  BorderColor #0b4884
}
skinparam person<<ResearchCenterUser>> {
  BackgroundColor #08427b
  FontColor #ffffff
  BorderColor #052e56
}
skinparam rectangle<<ResearchTracking>> {
  BackgroundColor #1168bd
  FontColor #ffffff
  BorderColor #0b4884
}
skinparam rectangle<<TrainingSystem>> {
  BackgroundColor #1168bd
  FontColor #ffffff
  BorderColor #0b4884
}

person "==ADRC Data User\n<size:10>[Person]</size>\n\nADRC user uploading and managing data" <<ADRCDataUser>> as ADRCDataUser
person "==ADRC Leader\n<size:10>[Person]</size>\n\nADRC leadership member" <<ADRCLeader>> as ADRCLeader
rectangle "==Authorization Service\n<size:10>[Software System]</size>\n\nAuthentication and Authorization to Access Systems" <<AuthorizationService>> as AuthorizationService
rectangle "==NACC Directory\n<size:10>[Software System]</size>\n\nDirectory of NACC, ADRC, and affiliated project staff with roles" <<NACCDirectory>> as NACCDirectory
person "==ADRC Clinical User\n<size:10>[Person]</size>\n\nADRC user responsible for data collection" <<ADRCClinicalUser>> as ADRCClinicalUser
rectangle "==NACC Data Repository\n<size:10>[Software System]</size>\n\nAllows acquisition, management and queries of data sets" <<NACCDataRepository>> as NACCDataRepository
person "==Research Center User\n<size:10>[Person]</size>\n\nUser at ADRC or other research center" <<ResearchCenterUser>> as ResearchCenterUser
rectangle "==Research Tracking\n<size:10>[Software System]</size>\n\nDirectory of research activity using NACC managed data" <<ResearchTracking>> as ResearchTracking
rectangle "==Training System\n<size:10>[Software System]</size>\n\nLearning management system providing training materials" <<TrainingSystem>> as TrainingSystem

package "Website\n[Software System]" <<Website>> {
  skinparam PackageBorderColor<<Website>> #444444
  skinparam PackageFontColor<<Website>> #444444

  rectangle "==Access Request\n<size:10>[Container]</size>\n\nUser access requests to change authorizations" <<Website.AccessRequest>> as Website.AccessRequest
  rectangle "==Calculators\n<size:10>[Container]</size>\n\nUser access to calculators used in form completion" <<Website.Calculators>> as Website.Calculators
  rectangle "==Documentation Interface\n<size:10>[Container]</size>\n\nProvide access to form and center documentation" <<Website.DocumentationInterface>> as Website.DocumentationInterface
  rectangle "==Landing Page\n<size:10>[Container]</size>\n\nLanding page for website with routing to subsystems" <<Website.LandingPage>> as Website.LandingPage
}

Website.LandingPage .[#707070,thickness=2].> NACCDataRepository : "<color:#707070>"
Website.LandingPage .[#707070,thickness=2].> NACCDirectory : "<color:#707070>"
ResearchCenterUser .[#707070,thickness=2].> Website.Calculators : "<color:#707070>Use calculators for completing forms\n<color:#707070><size:8>[HTTPS]</size>"
ResearchCenterUser .[#707070,thickness=2].> NACCDirectory : "<color:#707070>Adds/Removes Members Of Adrc\n<color:#707070><size:8>[HTTPS]</size>"
ResearchCenterUser .[#707070,thickness=2].> Website.DocumentationInterface : "<color:#707070>Get information about NACC resources\n<color:#707070><size:8>[HTTPS]</size>"
ResearchCenterUser .[#707070,thickness=2].> NACCDataRepository : "<color:#707070>Views ADRC data and reports about submissions and errors\n<color:#707070><size:8>[HTTPS]</size>"
ResearchCenterUser .[#707070,thickness=2].> TrainingSystem : "<color:#707070>Learn about using NACC resources\n<color:#707070><size:8>[HTTPS]</size>"
ADRCDataUser .[#707070,thickness=2].> NACCDataRepository : "<color:#707070>Uploads data and corrects errors\n<color:#707070><size:8>[HTTPS]</size>"
ADRCDataUser .[#707070,thickness=2].> Website.Calculators : "<color:#707070>Use calculators for completing forms\n<color:#707070><size:8>[HTTPS]</size>"
ADRCDataUser .[#707070,thickness=2].> Website.DocumentationInterface : "<color:#707070>Get information about NACC resources\n<color:#707070><size:8>[HTTPS]</size>"
ADRCDataUser .[#707070,thickness=2].> TrainingSystem : "<color:#707070>Learn about usng NACC resources\n<color:#707070><size:8>[HTTPS]</size>"
ADRCClinicalUser .[#707070,thickness=2].> TrainingSystem : "<color:#707070>Learn about using forms\n<color:#707070><size:8>[HTTPS]</size>"
ADRCClinicalUser .[#707070,thickness=2].> Website.Calculators : "<color:#707070>Use calculators for completing forms\n<color:#707070><size:8>[HTTPS]</size>"
ADRCClinicalUser .[#707070,thickness=2].> Website.DocumentationInterface : "<color:#707070>Get information about use of forms\n<color:#707070><size:8>[HTTPS]</size>"
ADRCLeader .[#707070,thickness=2].> Website.DocumentationInterface : "<color:#707070>Get information about ADRC use of NACC\n<color:#707070><size:8>[HTTPS]</size>"
NACCDataRepository .[#707070,thickness=2].> NACCDirectory : "<color:#707070>"
ADRCLeader .[#707070,thickness=2].> NACCDataRepository : "<color:#707070>Views ADRC data and reports about submissions and errors\n<color:#707070><size:8>[HTTPS]</size>"
ADRCLeader .[#707070,thickness=2].> TrainingSystem : "<color:#707070>Learn about using NACC resources\n<color:#707070><size:8>[HTTPS]</size>"
NACCDirectory .[#707070,thickness=2].> AuthorizationService : "<color:#707070>"
ResearchTracking .[#707070,thickness=2].> AuthorizationService : "<color:#707070>"
Website.AccessRequest .[#707070,thickness=2].> AuthorizationService : "<color:#707070>"
Website.LandingPage .[#707070,thickness=2].> Website.AccessRequest : "<color:#707070>"
Website.LandingPage .[#707070,thickness=2].> AuthorizationService : "<color:#707070>"
Website.LandingPage .[#707070,thickness=2].> Website.Calculators : "<color:#707070>"
Website.LandingPage .[#707070,thickness=2].> Website.DocumentationInterface : "<color:#707070>"
Website.LandingPage .[#707070,thickness=2].> TrainingSystem : "<color:#707070>"
Website.LandingPage .[#707070,thickness=2].> ResearchTracking : "<color:#707070>"
@enduml

PlantUML version 1.2021.10(Mon Aug 30 13:43:48 UTC 2021)
(GPL source distribution)
Java Runtime: OpenJDK Runtime Environment
JVM: OpenJDK 64-Bit Server VM
Default Encoding: UTF-8
Language: en
Country: US
--></g></svg>