<?xml version="1.0" encoding="UTF-8" standalone="no"?><svg xmlns="http://www.w3.org/2000/svg" xmlns:xlink="http://www.w3.org/1999/xlink" contentScriptType="application/ecmascript" contentStyleType="text/css" height="805px" preserveAspectRatio="none" style="width:1818px;height:805px;background:#FFFFFF;" version="1.1" viewBox="0 0 1818 805" width="1818px" zoomAndPan="magnify"><defs/><g><text fill="#000000" font-family="sans-serif" font-size="18" lengthAdjust="spacing" textLength="186" x="809.75" y="16.708">Website - Containers</text><!--MD5=[3aa067a49d85837e8bd0ca08037cba25]
cluster Website\n[Software System]--><polygon fill="#FFFFFF" points="390,26.9531,543,26.9531,550,65.5469,1102,65.5469,1102,436.9531,390,436.9531,390,26.9531" style="stroke:#444444;stroke-width:1.5;"/><line style="stroke:#444444;stroke-width:1.5;" x1="390" x2="550" y1="65.5469" y2="65.5469"/><text fill="#444444" font-family="sans-serif" font-size="14" font-weight="bold" lengthAdjust="spacing" textLength="64" x="435.5" y="41.9482">Website</text><text fill="#444444" font-family="sans-serif" font-size="14" font-weight="bold" lengthAdjust="spacing" textLength="147" x="394" y="58.2451">[Software System]</text><!--MD5=[7562a9927188c6a286b7a3aa9ba709a3]
entity Website.AccessRequest--><rect fill="#438DD5" height="99.1563" style="stroke:#2E6295;stroke-width:1.5;" width="193" x="406.5" y="312.4531"/><text fill="#FFFFFF" font-family="sans-serif" font-size="16" font-weight="bold" lengthAdjust="spacing" textLength="143" x="431.5" y="337.3047">Access Request</text><text fill="#FFFFFF" font-family="sans-serif" font-size="10" lengthAdjust="spacing" textLength="56" x="475" y="350.3604">[Container]</text><text fill="#FFFFFF" font-family="sans-serif" font-size="14" lengthAdjust="spacing" textLength="0" x="505" y="365.7139"/><text fill="#FFFFFF" font-family="sans-serif" font-size="14" lengthAdjust="spacing" textLength="169" x="416.5" y="382.0107">User access requests to</text><text fill="#FFFFFF" font-family="sans-serif" font-size="14" lengthAdjust="spacing" textLength="154" x="426" y="398.3076">change authorizations</text><!--MD5=[5c580e0687f57751b03f239492cc9c4c]
entity Website.Calculators--><rect fill="#438DD5" height="99.1563" style="stroke:#2E6295;stroke-width:1.5;" width="205" x="634.5" y="312.4531"/><text fill="#FFFFFF" font-family="sans-serif" font-size="16" font-weight="bold" lengthAdjust="spacing" textLength="98" x="688" y="337.3047">Calculators</text><text fill="#FFFFFF" font-family="sans-serif" font-size="10" lengthAdjust="spacing" textLength="56" x="709" y="350.3604">[Container]</text><text fill="#FFFFFF" font-family="sans-serif" font-size="14" lengthAdjust="spacing" textLength="0" x="739" y="365.7139"/><text fill="#FFFFFF" font-family="sans-serif" font-size="14" lengthAdjust="spacing" textLength="181" x="644.5" y="382.0107">User access to calculators</text><text fill="#FFFFFF" font-family="sans-serif" font-size="14" lengthAdjust="spacing" textLength="167" x="653.5" y="398.3076">used in form completion</text><!--MD5=[d0bb6a2725c86b414c239ec3d59cc84f]
entity Website.DocumentationInterface--><rect fill="#438DD5" height="117.7813" style="stroke:#2E6295;stroke-width:1.5;" width="211" x="874.5" y="302.9531"/><text fill="#FFFFFF" font-family="sans-serif" font-size="16" font-weight="bold" lengthAdjust="spacing" textLength="135" x="909.5" y="327.8047">Documentation</text><text fill="#FFFFFF" font-family="sans-serif" font-size="16" font-weight="bold" lengthAdjust="spacing" textLength="82" x="939" y="346.4297">Interface</text><text fill="#FFFFFF" font-family="sans-serif" font-size="10" lengthAdjust="spacing" textLength="56" x="952" y="359.4854">[Container]</text><text fill="#FFFFFF" font-family="sans-serif" font-size="14" lengthAdjust="spacing" textLength="0" x="982" y="374.8389"/><text fill="#FFFFFF" font-family="sans-serif" font-size="14" lengthAdjust="spacing" textLength="187" x="884.5" y="391.1357">Provide access to form and</text><text fill="#FFFFFF" font-family="sans-serif" font-size="14" lengthAdjust="spacing" textLength="154" x="903" y="407.4326">center documentation</text><!--MD5=[944a1bfc662527ea7a9e670ddc1d84a1]
entity Website.LandingPage--><rect fill="#438DD5" height="99.1563" style="stroke:#2E6295;stroke-width:1.5;" width="207" x="520.5" y="77.9531"/><text fill="#FFFFFF" font-family="sans-serif" font-size="16" font-weight="bold" lengthAdjust="spacing" textLength="118" x="565" y="102.8047">Landing Page</text><text fill="#FFFFFF" font-family="sans-serif" font-size="10" lengthAdjust="spacing" textLength="56" x="596" y="115.8604">[Container]</text><text fill="#FFFFFF" font-family="sans-serif" font-size="14" lengthAdjust="spacing" textLength="0" x="626" y="131.2139"/><text fill="#FFFFFF" font-family="sans-serif" font-size="14" lengthAdjust="spacing" textLength="173" x="535.5" y="147.5107">Landing page for website</text><text fill="#FFFFFF" font-family="sans-serif" font-size="14" lengthAdjust="spacing" textLength="187" x="530.5" y="163.8076">with routing to subsystems</text><!--MD5=[4a3f3998f8b80ec327207cc29efa6261]
entity ADRCDataUser--><ellipse cx="1460" cy="78.0999" fill="#08427B" rx="29.6468" ry="29.6468" style="stroke:#052E56;stroke-width:1.5;"/><rect fill="#08427B" height="99.1563" rx="29.6468" ry="29.6468" style="stroke:#052E56;stroke-width:1.5;" width="201" x="1359.5" y="107.7467"/><text fill="#FFFFFF" font-family="sans-serif" font-size="16" font-weight="bold" lengthAdjust="spacing" textLength="143" x="1388.5" y="132.5982">ADRC Data User</text><text fill="#FFFFFF" font-family="sans-serif" font-size="10" lengthAdjust="spacing" textLength="42" x="1439" y="145.6539">[Person]</text><text fill="#FFFFFF" font-family="sans-serif" font-size="14" lengthAdjust="spacing" textLength="0" x="1462" y="161.0074"/><text fill="#FFFFFF" font-family="sans-serif" font-size="14" lengthAdjust="spacing" textLength="177" x="1369.5" y="177.3043">ADRC user uploading and</text><text fill="#FFFFFF" font-family="sans-serif" font-size="14" lengthAdjust="spacing" textLength="102" x="1409" y="193.6012">managing data</text><!--MD5=[00af80dfb05af082a60909b2d216a295]
entity AuthorizationService--><rect fill="#08427B" height="115.4531" style="stroke:#052E56;stroke-width:1.5;" width="209" x="217.5" y="683.9531"/><text fill="#FFFFFF" font-family="sans-serif" font-size="16" font-weight="bold" lengthAdjust="spacing" textLength="189" x="227.5" y="708.8047">Authorization Service</text><text fill="#FFFFFF" font-family="sans-serif" font-size="10" lengthAdjust="spacing" textLength="94" x="275" y="721.8604">[Software System]</text><text fill="#FFFFFF" font-family="sans-serif" font-size="14" lengthAdjust="spacing" textLength="0" x="324" y="737.2139"/><text fill="#FFFFFF" font-family="sans-serif" font-size="14" lengthAdjust="spacing" textLength="130" x="255" y="753.5107">Authentication and</text><text fill="#FFFFFF" font-family="sans-serif" font-size="14" lengthAdjust="spacing" textLength="163" x="238.5" y="769.8076">Authorization to Access</text><text fill="#FFFFFF" font-family="sans-serif" font-size="14" lengthAdjust="spacing" textLength="59" x="292.5" y="786.1045">Systems</text><!--MD5=[d8dbfb01b5435ebe361e6450c726994f]
entity NACCDirectory--><rect fill="#1168BD" height="115.4531" style="stroke:#0B4884;stroke-width:1.5;" width="198" x="1032" y="495.9531"/><text fill="#FFFFFF" font-family="sans-serif" font-size="16" font-weight="bold" lengthAdjust="spacing" textLength="138" x="1062" y="520.8047">NACC Directory</text><text fill="#FFFFFF" font-family="sans-serif" font-size="10" lengthAdjust="spacing" textLength="94" x="1084" y="533.8604">[Software System]</text><text fill="#FFFFFF" font-family="sans-serif" font-size="14" lengthAdjust="spacing" textLength="0" x="1133" y="549.2139"/><text fill="#FFFFFF" font-family="sans-serif" font-size="14" lengthAdjust="spacing" textLength="174" x="1042" y="565.5107">Directory of NACC, ADRC,</text><text fill="#FFFFFF" font-family="sans-serif" font-size="14" lengthAdjust="spacing" textLength="171" x="1043.5" y="581.8076">and affiliated project staff</text><text fill="#FFFFFF" font-family="sans-serif" font-size="14" lengthAdjust="spacing" textLength="66" x="1098" y="598.1045">with roles</text><!--MD5=[8d96d9893c6bd918fa5ccd3187112fd0]
entity ADRCClinicalUser--><ellipse cx="1221" cy="77.9664" fill="#08427B" rx="30.0132" ry="30.0132" style="stroke:#052E56;stroke-width:1.5;"/><rect fill="#08427B" height="99.1563" rx="30.0132" ry="30.0132" style="stroke:#052E56;stroke-width:1.5;" width="206" x="1118" y="107.9796"/><text fill="#FFFFFF" font-family="sans-serif" font-size="16" font-weight="bold" lengthAdjust="spacing" textLength="161" x="1140.5" y="132.8312">ADRC Clinical User</text><text fill="#FFFFFF" font-family="sans-serif" font-size="10" lengthAdjust="spacing" textLength="42" x="1200" y="145.8868">[Person]</text><text fill="#FFFFFF" font-family="sans-serif" font-size="14" lengthAdjust="spacing" textLength="0" x="1223" y="161.2404"/><text fill="#FFFFFF" font-family="sans-serif" font-size="14" lengthAdjust="spacing" textLength="182" x="1128" y="177.5372">ADRC user responsible for</text><text fill="#FFFFFF" font-family="sans-serif" font-size="14" lengthAdjust="spacing" textLength="100" x="1171" y="193.8341">data collection</text><!--MD5=[5861730779c3bd58646f12ce4b4e3af2]
entity NACCDataRepository--><rect fill="#1168BD" height="115.4531" style="stroke:#0B4884;stroke-width:1.5;" width="219" x="1439.5" y="304.4531"/><text fill="#FFFFFF" font-family="sans-serif" font-size="16" font-weight="bold" lengthAdjust="spacing" textLength="198" x="1450" y="329.3047">NACC Data Repository</text><text fill="#FFFFFF" font-family="sans-serif" font-size="10" lengthAdjust="spacing" textLength="94" x="1502" y="342.3604">[Software System]</text><text fill="#FFFFFF" font-family="sans-serif" font-size="14" lengthAdjust="spacing" textLength="0" x="1551" y="357.7139"/><text fill="#FFFFFF" font-family="sans-serif" font-size="14" lengthAdjust="spacing" textLength="125" x="1484.5" y="374.0107">Allows acquisition,</text><text fill="#FFFFFF" font-family="sans-serif" font-size="14" lengthAdjust="spacing" textLength="195" x="1449.5" y="390.3076">management and queries of</text><text fill="#FFFFFF" font-family="sans-serif" font-size="14" lengthAdjust="spacing" textLength="64" x="1517" y="406.6045">data sets</text><!--MD5=[9187420b3ee29e13a21850ad86899c09]
entity ResearchCenterUser--><ellipse cx="1704" cy="77.7573" fill="#08427B" rx="30.8041" ry="30.8041" style="stroke:#052E56;stroke-width:1.5;"/><rect fill="#08427B" height="99.1563" rx="30.8041" ry="30.8041" style="stroke:#052E56;stroke-width:1.5;" width="217" x="1595.5" y="108.5614"/><text fill="#FFFFFF" font-family="sans-serif" font-size="16" font-weight="bold" lengthAdjust="spacing" textLength="197" x="1605.5" y="133.413">Research Center User</text><text fill="#FFFFFF" font-family="sans-serif" font-size="10" lengthAdjust="spacing" textLength="42" x="1683" y="146.4686">[Person]</text><text fill="#FFFFFF" font-family="sans-serif" font-size="14" lengthAdjust="spacing" textLength="0" x="1706" y="161.8222"/><text fill="#FFFFFF" font-family="sans-serif" font-size="14" lengthAdjust="spacing" textLength="152" x="1626" y="178.119">User at ADRC or other</text><text fill="#FFFFFF" font-family="sans-serif" font-size="14" lengthAdjust="spacing" textLength="110" x="1649" y="194.4159">research center</text><!--MD5=[a6a8aca4c853df3ce7a8ab92452b9090]
entity ResearchTracking--><rect fill="#1168BD" height="99.1563" style="stroke:#0B4884;stroke-width:1.5;" width="218" x="7" y="312.4531"/><text fill="#FFFFFF" font-family="sans-serif" font-size="16" font-weight="bold" lengthAdjust="spacing" textLength="165" x="33.5" y="337.3047">Research Tracking</text><text fill="#FFFFFF" font-family="sans-serif" font-size="10" lengthAdjust="spacing" textLength="94" x="69" y="350.3604">[Software System]</text><text fill="#FFFFFF" font-family="sans-serif" font-size="14" lengthAdjust="spacing" textLength="0" x="118" y="365.7139"/><text fill="#FFFFFF" font-family="sans-serif" font-size="14" lengthAdjust="spacing" textLength="194" x="17" y="382.0107">Directory of research activity</text><text fill="#FFFFFF" font-family="sans-serif" font-size="14" lengthAdjust="spacing" textLength="184" x="24" y="398.3076">using NACC managed data</text><!--MD5=[8e257b0afe9e935277c75a7596d04b18]
entity TrainingSystem--><rect fill="#1168BD" height="115.4531" style="stroke:#0B4884;stroke-width:1.5;" width="196" x="1150" y="304.4531"/><text fill="#FFFFFF" font-family="sans-serif" font-size="16" font-weight="bold" lengthAdjust="spacing" textLength="142" x="1177" y="329.3047">Training System</text><text fill="#FFFFFF" font-family="sans-serif" font-size="10" lengthAdjust="spacing" textLength="94" x="1201" y="342.3604">[Software System]</text><text fill="#FFFFFF" font-family="sans-serif" font-size="14" lengthAdjust="spacing" textLength="0" x="1250" y="357.7139"/><text fill="#FFFFFF" font-family="sans-serif" font-size="14" lengthAdjust="spacing" textLength="155" x="1168.5" y="374.0107">Learning management</text><text fill="#FFFFFF" font-family="sans-serif" font-size="14" lengthAdjust="spacing" textLength="172" x="1160" y="390.3076">system providing training</text><text fill="#FFFFFF" font-family="sans-serif" font-size="14" lengthAdjust="spacing" textLength="62" x="1217" y="406.6045">materials</text><!--MD5=[c79be9791a578b184a44205079187a05]
link Website.LandingPage to NACCDataRepository--><path d="M727.95,147.5631 C824.4,164.8731 972.07,190.2931 1101,207.9531 C1224.56,224.8831 1264.37,191.2231 1380,237.9531 C1403.49,247.4431 1404.66,257.8431 1425,272.9531 C1437.58,282.3031 1450.99,292.0431 1464.17,301.4931 " fill="none" id="Website.LandingPage-to-NACCDataRepository" style="stroke:#707070;stroke-width:2.0;stroke-dasharray:7.0,7.0;"/><polygon fill="#707070" points="1468.25,304.4231,1463.2598,295.9321,1464.1842,301.5129,1458.6034,302.4373,1468.25,304.4231" style="stroke:#707070;stroke-width:2.0;"/><text fill="#000000" font-family="sans-serif" font-size="10" lengthAdjust="spacing" textLength="0" x="1429" y="259.2354"/><!--MD5=[66ba4a3f0a760340c481518cbedb3871]
link Website.LandingPage to NACCDirectory--><path d="M520.26,175.0931 C469.28,204.0031 412.76,246.4931 384,302.9531 C355.36,359.1931 342.67,397.2531 384,444.9531 C425.51,492.8631 831.19,529.7731 1026.69,544.9331 " fill="none" id="Website.LandingPage-to-NACCDirectory" style="stroke:#707070;stroke-width:2.0;stroke-dasharray:7.0,7.0;"/><polygon fill="#707070" points="1031.84,545.3331,1023.1753,540.6508,1026.8549,544.9475,1022.5583,548.627,1031.84,545.3331" style="stroke:#707070;stroke-width:2.0;"/><text fill="#000000" font-family="sans-serif" font-size="10" lengthAdjust="spacing" textLength="0" x="388" y="365.7354"/><!--MD5=[d5b75d4296f512fc7196e87bbf22bd79]
link ResearchCenterUser to Website.Calculators--><path d="M1595.46,199.6131 C1589.63,202.5831 1583.79,205.3831 1578,207.9531 C1532.45,228.1231 1514.38,215.3231 1470,237.9531 C1447.74,249.3031 1449.37,264.0931 1426,272.9531 C1307.6,317.8331 979.64,271.4531 857,302.9531 C849.11,304.9831 841.13,307.5431 833.22,310.4631 " fill="none" id="ResearchCenterUser-to-Website.Calculators" style="stroke:#707070;stroke-width:2.0;stroke-dasharray:7.0,7.0;"/><polygon fill="#707070" points="828.3,312.3231,838.133,312.8821,832.9769,310.555,835.304,305.399,828.3,312.3231" style="stroke:#707070;stroke-width:2.0;"/><text fill="#000000" font-family="sans-serif" font-size="10" lengthAdjust="spacing" textLength="0" x="1474" y="259.2354"/><!--MD5=[9804e2017b5755e8d194cde6bd0e15e3]
link ResearchCenterUser to NACCDirectory--><path d="M1721.34,208.2431 C1731.77,279.4431 1733.57,381.9231 1676,444.9531 C1618.09,508.3631 1377.01,535.5731 1235.63,546.2631 " fill="none" id="ResearchCenterUser-to-NACCDirectory" style="stroke:#707070;stroke-width:2.0;stroke-dasharray:7.0,7.0;"/><polygon fill="#707070" points="1230.23,546.6631,1239.5023,549.9834,1235.2162,546.2917,1238.908,542.0055,1230.23,546.6631" style="stroke:#707070;stroke-width:2.0;"/><text fill="#000000" font-family="sans-serif" font-size="10" lengthAdjust="spacing" textLength="0" x="1730" y="365.7354"/><!--MD5=[af0a326282f463809e85ebb797b2be4a]
link ResearchCenterUser to Website.DocumentationInterface--><path d="M1595.2,198.2031 C1589.42,201.5631 1583.66,204.8331 1578,207.9531 C1550.84,222.9231 1541.31,221.5231 1515,237.9531 C1493.8,251.1831 1494.2,263.6831 1471,272.9531 C1330.96,328.9231 1280,269.2431 1133,302.9531 C1119.07,306.1431 1104.7,310.3231 1090.61,314.9831 " fill="none" id="ResearchCenterUser-to-Website.DocumentationInterface" style="stroke:#707070;stroke-width:2.0;stroke-dasharray:7.0,7.0;"/><polygon fill="#707070" points="1085.85,316.5731,1095.6539,317.513,1090.592,314.9877,1093.1172,309.9258,1085.85,316.5731" style="stroke:#707070;stroke-width:2.0;"/><text fill="#000000" font-family="sans-serif" font-size="10" lengthAdjust="spacing" textLength="0" x="1519" y="259.2354"/><!--MD5=[acfea47c9371a7ea443371e1acecbcc3]
link ResearchCenterUser to NACCDataRepository--><path d="M1692.36,208.2131 C1686.57,230.4631 1677.92,253.7731 1665,272.9531 C1658.33,282.8631 1650.17,292.1031 1641.29,300.6031 " fill="none" id="ResearchCenterUser-to-NACCDataRepository" style="stroke:#707070;stroke-width:2.0;stroke-dasharray:7.0,7.0;"/><polygon fill="#707070" points="1637.45,304.1931,1646.7583,300.9752,1641.1048,300.781,1641.299,295.1275,1637.45,304.1931" style="stroke:#707070;stroke-width:2.0;"/><text fill="#000000" font-family="sans-serif" font-size="10" lengthAdjust="spacing" textLength="0" x="1685" y="259.2354"/><!--MD5=[3bff7533f468798959df3cde2fdba6c5]
link ResearchCenterUser to TrainingSystem--><path d="M1598.8,208.0231 C1585.7,218.0631 1572.52,228.2131 1560,237.9531 C1540.28,253.2931 1538.04,261.1831 1516,272.9531 C1477.32,293.6131 1463.69,289.3531 1422,302.9531 C1399.11,310.4231 1374.56,318.5431 1351.33,326.2731 " fill="none" id="ResearchCenterUser-to-TrainingSystem" style="stroke:#707070;stroke-width:2.0;stroke-dasharray:7.0,7.0;"/><polygon fill="#707070" points="1346.39,327.9131,1356.1939,328.853,1351.132,326.3277,1353.6572,321.2658,1346.39,327.9131" style="stroke:#707070;stroke-width:2.0;"/><text fill="#000000" font-family="sans-serif" font-size="10" lengthAdjust="spacing" textLength="0" x="1564" y="259.2354"/><!--MD5=[082a749e9175e7b01ce1f37a356cdce1]
link ADRCDataUser to NACCDataRepository--><path d="M1543.88,206.5731 C1550.77,216.4731 1556.72,226.9931 1561,237.9531 C1568.49,257.1131 1568.68,279.1731 1566,299.2731 " fill="none" id="ADRCDataUser-to-NACCDataRepository" style="stroke:#707070;stroke-width:2.0;stroke-dasharray:7.0,7.0;"/><polygon fill="#707070" points="1565.26,304.3431,1570.5061,296.0077,1565.9751,299.3945,1562.5883,294.8636,1565.26,304.3431" style="stroke:#707070;stroke-width:2.0;"/><text fill="#707070" font-family="sans-serif" font-size="10" lengthAdjust="spacing" textLength="85" x="1568" y="248.2354">Uploads data and</text><text fill="#707070" font-family="sans-serif" font-size="10" lengthAdjust="spacing" textLength="71" x="1576.5" y="259.876">corrects errors</text><text fill="#707070" font-family="sans-serif" font-size="8" lengthAdjust="spacing" textLength="32" x="1596" y="269.6602">[HTTPS]</text><!--MD5=[4e623ba7bad09b02fb6ca9f9b7eba500]
link ADRCDataUser to Website.Calculators--><path d="M1359.24,197.0131 C1353.43,200.7531 1347.66,204.4231 1342,207.9531 C1319.37,222.0831 1312.06,222.9431 1290,237.9531 C1269.34,252.0131 1269.26,263.8131 1246,272.9531 C1084.61,336.3831 1024.41,257.7731 857,302.9531 C849.23,305.0531 841.36,307.6431 833.55,310.5731 " fill="none" id="ADRCDataUser-to-Website.Calculators" style="stroke:#707070;stroke-width:2.0;stroke-dasharray:7.0,7.0;"/><polygon fill="#707070" points="828.7,312.4331,838.5363,312.9297,833.3656,310.6354,835.6599,305.4647,828.7,312.4331" style="stroke:#707070;stroke-width:2.0;"/><text fill="#000000" font-family="sans-serif" font-size="10" lengthAdjust="spacing" textLength="0" x="1294" y="259.2354"/><!--MD5=[a767b9cf36e1003383b9365977d06aef]
link ADRCDataUser to Website.DocumentationInterface--><path d="M1370.57,206.5931 C1332.75,239.3331 1296.15,270.4831 1291,272.9531 C1226.56,303.8831 1201.79,283.5431 1133,302.9531 C1119.12,306.8731 1104.73,311.5131 1090.58,316.4431 " fill="none" id="ADRCDataUser-to-Website.DocumentationInterface" style="stroke:#707070;stroke-width:2.0;stroke-dasharray:7.0,7.0;"/><polygon fill="#707070" points="1085.79,318.1231,1095.6072,318.9122,1090.5071,316.465,1092.9542,311.3649,1085.79,318.1231" style="stroke:#707070;stroke-width:2.0;"/><text fill="#000000" font-family="sans-serif" font-size="10" lengthAdjust="spacing" textLength="0" x="1336" y="259.2354"/><!--MD5=[9c71845586375cc9ea65744f4933c003]
link ADRCDataUser to TrainingSystem--><path d="M1394.79,206.6531 C1376.13,228.4131 1355.55,251.8531 1336,272.9531 C1327.65,281.9631 1318.66,291.3231 1309.74,300.4131 " fill="none" id="ADRCDataUser-to-TrainingSystem" style="stroke:#707070;stroke-width:2.0;stroke-dasharray:7.0,7.0;"/><polygon fill="#707070" points="1305.92,304.2931,1315.0836,300.6836,1309.4269,300.7292,1309.3813,295.0725,1305.92,304.2931" style="stroke:#707070;stroke-width:2.0;"/><text fill="#000000" font-family="sans-serif" font-size="10" lengthAdjust="spacing" textLength="0" x="1371" y="259.2354"/><!--MD5=[74a0456916178dcf3905672d70011a7c]
link ADRCClinicalUser to TrainingSystem--><path d="M1155.15,207.0731 C1144.84,228.3131 1140.38,251.3831 1150,272.9531 C1154.36,282.7331 1160.41,291.8831 1167.38,300.3031 " fill="none" id="ADRCClinicalUser-to-TrainingSystem" style="stroke:#707070;stroke-width:2.0;stroke-dasharray:7.0,7.0;"/><polygon fill="#707070" points="1170.87,304.3731,1168.0528,294.9358,1167.6172,300.5758,1161.9772,300.1402,1170.87,304.3731" style="stroke:#707070;stroke-width:2.0;"/><text fill="#707070" font-family="sans-serif" font-size="10" lengthAdjust="spacing" textLength="87" x="1151" y="253.2354">Learn about using</text><text fill="#707070" font-family="sans-serif" font-size="10" lengthAdjust="spacing" textLength="29" x="1181.5" y="264.876">forms</text><!--MD5=[0c225ea6c8d47e2dafb783d0470a2db4]
link ADRCClinicalUser to Website.Calculators--><path d="M1117.98,199.2131 C1112.64,202.2731 1107.29,205.2031 1102,207.9531 C998.38,261.8231 964.11,256.3931 857,302.9531 C851.61,305.2931 846.11,307.7431 840.58,310.2531 " fill="none" id="ADRCClinicalUser-to-Website.Calculators" style="stroke:#707070;stroke-width:2.0;stroke-dasharray:7.0,7.0;"/><polygon fill="#707070" points="835.92,312.3731,845.7684,312.2787,840.4694,310.2987,842.4494,304.9997,835.92,312.3731" style="stroke:#707070;stroke-width:2.0;"/><text fill="#000000" font-family="sans-serif" font-size="10" lengthAdjust="spacing" textLength="0" x="1041" y="259.2354"/><!--MD5=[8eb2d9d8903f56a7eae91c9956be263e]
link ADRCClinicalUser to Website.DocumentationInterface--><path d="M1139.41,207.1631 C1108.3,237.1731 1073.33,270.9131 1044.08,299.1331 " fill="none" id="ADRCClinicalUser-to-Website.DocumentationInterface" style="stroke:#707070;stroke-width:2.0;stroke-dasharray:7.0,7.0;"/><polygon fill="#707070" points="1040.17,302.9031,1049.4251,299.5353,1043.7692,299.4324,1043.8721,293.7765,1040.17,302.9031" style="stroke:#707070;stroke-width:2.0;"/><text fill="#000000" font-family="sans-serif" font-size="10" lengthAdjust="spacing" textLength="0" x="1104" y="259.2354"/><!--MD5=[9b467a5f0217fc8314db8c67d2e81d7e]
link NACCDataRepository to NACCDirectory--><path d="M1439.45,412.6231 C1376.27,441.2631 1297.28,477.0731 1235.05,505.2831 " fill="none" id="NACCDataRepository-to-NACCDirectory" style="stroke:#707070;stroke-width:2.0;stroke-dasharray:7.0,7.0;"/><polygon fill="#707070" points="1230.22,507.4731,1240.0685,507.3904,1234.7718,505.4041,1236.7581,500.1074,1230.22,507.4731" style="stroke:#707070;stroke-width:2.0;"/><text fill="#000000" font-family="sans-serif" font-size="10" lengthAdjust="spacing" textLength="0" x="1344" y="463.2354"/><!--MD5=[d6dc12653c493b798bc1adfc2ef450b3]
link NACCDirectory to AuthorizationService--><path d="M1031.8,577.2631 C879.76,612.2131 590.16,678.8031 431.92,715.1831 " fill="none" id="NACCDirectory-to-AuthorizationService" style="stroke:#707070;stroke-width:2.0;stroke-dasharray:7.0,7.0;"/><polygon fill="#707070" points="426.82,716.3531,436.4853,718.2456,431.6941,715.2382,434.7015,710.447,426.82,716.3531" style="stroke:#707070;stroke-width:2.0;"/><text fill="#000000" font-family="sans-serif" font-size="10" lengthAdjust="spacing" textLength="0" x="754" y="651.2354"/><!--MD5=[938a5090f993615a2318775bc687c0aa]
link ResearchTracking to AuthorizationService--><path d="M134.51,411.6731 C158,471.0231 201.59,573.3331 252,653.9531 C257.37,662.5431 263.47,671.2331 269.79,679.6431 " fill="none" id="ResearchTracking-to-AuthorizationService" style="stroke:#707070;stroke-width:2.0;stroke-dasharray:7.0,7.0;"/><polygon fill="#707070" points="272.9,683.7431,270.645,674.1559,269.8771,679.7604,264.2726,678.9925,272.9,683.7431" style="stroke:#707070;stroke-width:2.0;"/><text fill="#000000" font-family="sans-serif" font-size="10" lengthAdjust="spacing" textLength="0" x="229" y="557.2354"/><!--MD5=[eb388cf4cd3517e928066ec16077e00c]
link Website.AccessRequest to AuthorizationService--><path d="M479.71,411.5331 C446.96,479.8331 387.32,604.2231 351.51,678.9031 " fill="none" id="Website.AccessRequest-to-AuthorizationService" style="stroke:#707070;stroke-width:2.0;stroke-dasharray:7.0,7.0;"/><polygon fill="#707070" points="349.19,683.7531,356.6959,677.3765,351.3574,679.2473,349.4866,673.9087,349.19,683.7531" style="stroke:#707070;stroke-width:2.0;"/><text fill="#000000" font-family="sans-serif" font-size="10" lengthAdjust="spacing" textLength="0" x="440" y="557.2354"/><!--MD5=[ec821e70c9c7a41600dddcb554bc2c8b]
link Website.LandingPage to Website.AccessRequest--><path d="M598.63,177.1931 C578.79,215.3231 551.23,268.2831 530.79,307.5531 " fill="none" id="Website.LandingPage-to-Website.AccessRequest" style="stroke:#707070;stroke-width:2.0;stroke-dasharray:7.0,7.0;"/><polygon fill="#707070" points="528.33,312.2731,536.0435,306.1492,530.6458,307.8417,528.9533,302.444,528.33,312.2731" style="stroke:#707070;stroke-width:2.0;"/><text fill="#000000" font-family="sans-serif" font-size="10" lengthAdjust="spacing" textLength="0" x="567" y="259.2354"/><!--MD5=[c28a439b9c78739913b8bd750591f479]
link Website.LandingPage to AuthorizationService--><path d="M520.3,158.4831 C454.07,184.3231 375.77,229.3531 349,302.9531 C302.71,430.2231 307.73,591.9531 315.09,678.7431 " fill="none" id="Website.LandingPage-to-AuthorizationService" style="stroke:#707070;stroke-width:2.0;stroke-dasharray:7.0,7.0;"/><polygon fill="#707070" points="315.53,683.8431,318.7422,674.5328,315.1006,678.8616,310.7718,675.2199,315.53,683.8431" style="stroke:#707070;stroke-width:2.0;"/><text fill="#000000" font-family="sans-serif" font-size="10" lengthAdjust="spacing" textLength="0" x="319" y="463.2354"/><!--MD5=[a454a8cb27c33c0370c3aca52a37e758]
link Website.LandingPage to Website.Calculators--><path d="M635.07,177.2731 C642.69,206.0831 654.27,242.7031 670,272.9531 C676.23,284.9431 684.1,296.9831 692.23,308.1531 " fill="none" id="Website.LandingPage-to-Website.Calculators" style="stroke:#707070;stroke-width:2.0;stroke-dasharray:7.0,7.0;"/><polygon fill="#707070" points="695.24,312.2231,693.1168,302.6059,692.2721,308.1993,686.6786,307.3546,695.24,312.2231" style="stroke:#707070;stroke-width:2.0;"/><text fill="#000000" font-family="sans-serif" font-size="10" lengthAdjust="spacing" textLength="0" x="674" y="259.2354"/><!--MD5=[77b1035c1e54a771cd91d896db97fa8a]
link Website.LandingPage to Website.DocumentationInterface--><path d="M647.29,177.1831 C665.06,209.1631 692.5,249.3031 728,272.9531 C776.99,305.5931 801.4,283.6231 857,302.9531 C861.09,304.3731 865.22,305.8931 869.37,307.4731 " fill="none" id="Website.LandingPage-to-Website.DocumentationInterface" style="stroke:#707070;stroke-width:2.0;stroke-dasharray:7.0,7.0;"/><polygon fill="#707070" points="874.25,309.3731,867.3159,302.379,869.5911,307.5581,864.4119,309.8333,874.25,309.3731" style="stroke:#707070;stroke-width:2.0;"/><text fill="#000000" font-family="sans-serif" font-size="10" lengthAdjust="spacing" textLength="0" x="732" y="259.2354"/><!--MD5=[3ca8382e699e992c93617c64fbc9c014]
link Website.LandingPage to TrainingSystem--><path d="M708.32,177.0131 C767.03,208.8231 848.11,248.8131 924,272.9531 C1000.45,297.2731 1024.73,281.3531 1102,302.9531 C1116.04,306.8731 1130.59,311.6931 1144.81,316.8531 " fill="none" id="Website.LandingPage-to-TrainingSystem" style="stroke:#707070;stroke-width:2.0;stroke-dasharray:7.0,7.0;"/><polygon fill="#707070" points="1149.62,318.6131,1142.5539,311.7524,1144.9273,316.8872,1139.7925,319.2607,1149.62,318.6131" style="stroke:#707070;stroke-width:2.0;"/><text fill="#000000" font-family="sans-serif" font-size="10" lengthAdjust="spacing" textLength="0" x="928" y="259.2354"/><!--MD5=[77d49c1c5e640f634ba2b32668c162f1]
link Website.LandingPage to ResearchTracking--><path d="M520.43,144.9131 C441.64,160.5631 332.55,189.1631 247,237.9531 C214.97,256.2131 184.6,283.8331 161.18,308.2731 " fill="none" id="Website.LandingPage-to-ResearchTracking" style="stroke:#707070;stroke-width:2.0;stroke-dasharray:7.0,7.0;"/><polygon fill="#707070" points="157.48,312.1631,166.5764,308.3875,160.9215,308.536,160.773,302.8811,157.48,312.1631" style="stroke:#707070;stroke-width:2.0;"/><text fill="#000000" font-family="sans-serif" font-size="10" lengthAdjust="spacing" textLength="0" x="251" y="259.2354"/><!--MD5=[01c053be7179451e1778fc83e5a89cad]
@startuml
title Website - Containers

top to bottom direction

skinparam {
  shadowing false
  arrowFontSize 10
  defaultTextAlignment center
  wrapWidth 200
  maxMessageSize 100
}

hide stereotype

skinparam person<<ADRCClinicalUser>> {
  BackgroundColor #08427b
  FontColor #ffffff
  BorderColor #052e56
}
skinparam person<<ADRCDataUser>> {
  BackgroundColor #08427b
  FontColor #ffffff
  BorderColor #052e56
}
skinparam rectangle<<Website.AccessRequest>> {
  BackgroundColor #438dd5
  FontColor #ffffff
  BorderColor #2e6295
}
skinparam rectangle<<AuthorizationService>> {
  BackgroundColor #08427b
  FontColor #ffffff
  BorderColor #052e56
}
skinparam rectangle<<Website.Calculators>> {
  BackgroundColor #438dd5
  FontColor #ffffff
  BorderColor #2e6295
}
skinparam rectangle<<Website.DocumentationInterface>> {
  BackgroundColor #438dd5
  FontColor #ffffff
  BorderColor #2e6295
}
skinparam rectangle<<Website.LandingPage>> {
  BackgroundColor #438dd5
  FontColor #ffffff
  BorderColor #2e6295
}
skinparam rectangle<<NACCDataRepository>> {
  BackgroundColor #1168bd
  FontColor #ffffff
  BorderColor #0b4884
}
skinparam rectangle<<NACCDirectory>> {
  BackgroundColor #1168bd
  FontColor #ffffff
  BorderColor #0b4884
}
skinparam person<<ResearchCenterUser>> {
  BackgroundColor #08427b
  FontColor #ffffff
  BorderColor #052e56
}
skinparam rectangle<<ResearchTracking>> {
  BackgroundColor #1168bd
  FontColor #ffffff
  BorderColor #0b4884
}
skinparam rectangle<<TrainingSystem>> {
  BackgroundColor #1168bd
  FontColor #ffffff
  BorderColor #0b4884
}

person "==ADRC Data User\n<size:10>[Person]</size>\n\nADRC user uploading and managing data" <<ADRCDataUser>> as ADRCDataUser
rectangle "==Authorization Service\n<size:10>[Software System]</size>\n\nAuthentication and Authorization to Access Systems" <<AuthorizationService>> as AuthorizationService
rectangle "==NACC Directory\n<size:10>[Software System]</size>\n\nDirectory of NACC, ADRC, and affiliated project staff with roles" <<NACCDirectory>> as NACCDirectory
person "==ADRC Clinical User\n<size:10>[Person]</size>\n\nADRC user responsible for data collection" <<ADRCClinicalUser>> as ADRCClinicalUser
rectangle "==NACC Data Repository\n<size:10>[Software System]</size>\n\nAllows acquisition, management and queries of data sets" <<NACCDataRepository>> as NACCDataRepository
person "==Research Center User\n<size:10>[Person]</size>\n\nUser at ADRC or other research center" <<ResearchCenterUser>> as ResearchCenterUser
rectangle "==Research Tracking\n<size:10>[Software System]</size>\n\nDirectory of research activity using NACC managed data" <<ResearchTracking>> as ResearchTracking
rectangle "==Training System\n<size:10>[Software System]</size>\n\nLearning management system providing training materials" <<TrainingSystem>> as TrainingSystem

package "Website\n[Software System]" <<Website>> {
  skinparam PackageBorderColor<<Website>> #444444
  skinparam PackageFontColor<<Website>> #444444

  rectangle "==Access Request\n<size:10>[Container]</size>\n\nUser access requests to change authorizations" <<Website.AccessRequest>> as Website.AccessRequest
  rectangle "==Calculators\n<size:10>[Container]</size>\n\nUser access to calculators used in form completion" <<Website.Calculators>> as Website.Calculators
  rectangle "==Documentation Interface\n<size:10>[Container]</size>\n\nProvide access to form and center documentation" <<Website.DocumentationInterface>> as Website.DocumentationInterface
  rectangle "==Landing Page\n<size:10>[Container]</size>\n\nLanding page for website with routing to subsystems" <<Website.LandingPage>> as Website.LandingPage
}

Website.LandingPage .[#707070,thickness=2].> NACCDataRepository : "<color:#707070>"
Website.LandingPage .[#707070,thickness=2].> NACCDirectory : "<color:#707070>"
ResearchCenterUser .[#707070,thickness=2].> Website.Calculators : "<color:#707070>"
ResearchCenterUser .[#707070,thickness=2].> NACCDirectory : "<color:#707070>"
ResearchCenterUser .[#707070,thickness=2].> Website.DocumentationInterface : "<color:#707070>"
ResearchCenterUser .[#707070,thickness=2].> NACCDataRepository : "<color:#707070>"
ResearchCenterUser .[#707070,thickness=2].> TrainingSystem : "<color:#707070>"
ADRCDataUser .[#707070,thickness=2].> NACCDataRepository : "<color:#707070>Uploads data and corrects errors\n<color:#707070><size:8>[HTTPS]</size>"
ADRCDataUser .[#707070,thickness=2].> Website.Calculators : "<color:#707070>"
ADRCDataUser .[#707070,thickness=2].> Website.DocumentationInterface : "<color:#707070>"
ADRCDataUser .[#707070,thickness=2].> TrainingSystem : "<color:#707070>"
ADRCClinicalUser .[#707070,thickness=2].> TrainingSystem : "<color:#707070>Learn about using forms"
ADRCClinicalUser .[#707070,thickness=2].> Website.Calculators : "<color:#707070>"
ADRCClinicalUser .[#707070,thickness=2].> Website.DocumentationInterface : "<color:#707070>"
NACCDataRepository .[#707070,thickness=2].> NACCDirectory : "<color:#707070>"
NACCDirectory .[#707070,thickness=2].> AuthorizationService : "<color:#707070>"
ResearchTracking .[#707070,thickness=2].> AuthorizationService : "<color:#707070>"
Website.AccessRequest .[#707070,thickness=2].> AuthorizationService : "<color:#707070>"
Website.LandingPage .[#707070,thickness=2].> Website.AccessRequest : "<color:#707070>"
Website.LandingPage .[#707070,thickness=2].> AuthorizationService : "<color:#707070>"
Website.LandingPage .[#707070,thickness=2].> Website.Calculators : "<color:#707070>"
Website.LandingPage .[#707070,thickness=2].> Website.DocumentationInterface : "<color:#707070>"
Website.LandingPage .[#707070,thickness=2].> TrainingSystem : "<color:#707070>"
Website.LandingPage .[#707070,thickness=2].> ResearchTracking : "<color:#707070>"
@enduml

PlantUML version 1.2021.10(Mon Aug 30 13:43:48 UTC 2021)
(GPL source distribution)
Java Runtime: OpenJDK Runtime Environment
JVM: OpenJDK 64-Bit Server VM
Default Encoding: UTF-8
Language: en
Country: US
--></g></svg>